<svg xmlns="http://www.w3.org/2000/svg" viewBox="0 0 556.57 419.47"><defs><style>.cls-1{fill:#382717;}.cls-2{fill:#b7b7b7;}.cls-3{fill:#fff;}</style></defs><title>ico-read</title><g id="Capa_2" data-name="Capa 2"><g id="Capa_2-2" data-name="Capa 2"><path class="cls-1" d="M281,419.47s110.14-102.64,275.57-4.82V46.47L534,36.47l-3-12s-100-72-244,31c0,0-91-90-260-33v13l-27,7L11,414.65s164-112.82,270,0"/><path class="cls-2" d="M280.85,400.88s104.09-95.88,260.44-4.5v-344L520,43.07l-2.84-11.21s-94.51-62.26-230.6,34c0,0-86-89.08-245.72-35.83V42.14L15.29,48.68l10.4,347.7s155-105.4,255.17,0"/><path class="cls-3" d="M280.71,380.54s98.16-90.42,245.59-4.24l5.19-328.17L520,43.07l-2.84-11.21s-102.73-56.73-231.07,34c0,0-94.64-86.09-245.25-35.88V42.14l-10.53,2.7,9.8,331.46s146.16-99.39,240.63,0"/><path class="cls-1" d="M257.35,107.16S187.63,15.36,52.54,65.7L47.33,54.93S181.68,3.15,259.51,98.46"/><path class="cls-1" d="M259.94,153.95s-69.72-91.8-204.81-41.46l-5.21-10.77S184.27,49.94,262.1,145.25"/><path class="cls-1" d="M262.28,196.42S192.56,104.62,57.47,155l-5.21-10.77s134.35-51.78,212.18,43.54"/><path class="cls-1" d="M264.71,240.43S195,148.62,59.9,199L54.69,188.2S189,136.42,266.87,231.73"/><path class="cls-1" d="M267.12,283.9S197.4,192.1,62.31,242.44l-5.21-10.77s134.35-51.78,212.18,43.54"/><path class="cls-1" d="M269.7,330.6S200,238.79,64.88,289.14l-5.21-10.77S194,226.59,271.85,321.9"/><path class="cls-1" d="M291.18,112.67S355.73,17.17,493.39,60l4.61-11S361,4.65,288.54,104.11"/><path class="cls-1" d="M291.18,159.53S355.73,64,493.39,106.84l4.61-11S361,51.51,288.54,151"/><path class="cls-1" d="M291.18,202.08s64.55-95.51,202.21-52.69l4.61-11S361,94.05,288.54,193.51"/><path class="cls-1" d="M291.18,246.15s64.55-95.51,202.21-52.69l4.61-11s-137-44.29-209.46,55.17"/><path class="cls-1" d="M291.18,289.69S355.73,194.18,493.39,237L498,226s-137-44.29-209.46,55.17"/><path class="cls-1" d="M291.18,336.45s64.55-95.51,202.21-52.69l4.61-11s-137-44.29-209.46,55.17"/></g></g></svg>