<svg xmlns="http://www.w3.org/2000/svg" viewBox="0 0 122.59 107.29"><defs><style>.cls-1{fill:#353231;}.cls-2{fill:#3d3938;}.cls-3{fill:#6dae44;}.cls-4{fill:none;stroke:#353231;stroke-miterlimit:10;stroke-width:4.6px;}</style></defs><title>ico-listen</title><g id="Capa_2" data-name="Capa 2"><g id="objects"><path class="cls-1" d="M97.63,103H73.42V99.45H97.63c14.14,0,20.88-25.27,20.95-25.53l3.47.9C121.75,76,114.51,103,97.63,103Z"/><rect class="cls-1" x="62.01" y="95.19" width="22.82" height="12.1" rx="5.19" ry="5.19"/><rect class="cls-1" x="13.69" y="44.71" width="8.95" height="8.95" rx="3.44" ry="3.44"/><path class="cls-2" d="M0,70A19.89,19.89,0,0,0,19.7,89.85V50.08A19.89,19.89,0,0,0,0,70Z"/><path class="cls-3" d="M27.26,87.9A4.23,4.23,0,0,1,23,92.13h0A4.23,4.23,0,0,1,18.8,87.9V52A4.23,4.23,0,0,1,23,47.8h0A4.23,4.23,0,0,1,27.26,52Z"/><path class="cls-1" d="M106.76,48.35h-4.6c0-22.29-18.32-40.42-40.84-40.42S20.46,26.06,20.46,48.35h-4.6c0-24.83,20.39-45,45.45-45S106.76,23.52,106.76,48.35Z"/><rect class="cls-1" x="99.95" y="44.71" width="8.95" height="8.95" rx="3.44" ry="3.44"/><path class="cls-2" d="M122.59,70a19.89,19.89,0,0,1-19.7,19.88V50.08A19.89,19.89,0,0,1,122.59,70Z"/><path class="cls-3" d="M95.33,87.9a4.23,4.23,0,0,0,4.23,4.23h0a4.23,4.23,0,0,0,4.23-4.23V52a4.23,4.23,0,0,0-4.23-4.23h0A4.23,4.23,0,0,0,95.33,52Z"/><path class="cls-4" d="M104.46,48.35"/><path class="cls-1" d="M31.92,22.7a5.63,5.63,0,0,1-3.82-9.77,49.09,49.09,0,0,1,66.41,0,5.63,5.63,0,1,1-7.63,8.28,37.83,37.83,0,0,0-51.15,0A5.61,5.61,0,0,1,31.92,22.7Z"/></g></g></svg>