<svg xmlns="http://www.w3.org/2000/svg" viewBox="0 0 45.71 37.15"><title>ico-tw</title><path d="M0,32.93a26.54,26.54,0,0,0,14.38,4.21c17.41,0,27.25-14.71,26.66-27.9A19,19,0,0,0,45.71,4.4a18.74,18.74,0,0,1-5.39,1.48A9.39,9.39,0,0,0,44.45.69a18.84,18.84,0,0,1-6,2.28,9.38,9.38,0,0,0-16,8.55A26.62,26.62,0,0,1,3.18,1.72a9.39,9.39,0,0,0,2.9,12.52,9.34,9.34,0,0,1-4.25-1.17,9.39,9.39,0,0,0,7.52,9.31,9.38,9.38,0,0,1-4.23.16,9.38,9.38,0,0,0,8.76,6.51A18.85,18.85,0,0,1,0,32.93" style="fill:#efeae2"/></svg>