<svg xmlns="http://www.w3.org/2000/svg" viewBox="0 0 104.73 134.36"><defs><style>.cls-1{fill:#353231;}.cls-2{fill:#6dae44;}</style></defs><title>ico-dance</title><g id="Capa_2" data-name="Capa 2"><g id="objects"><path class="cls-1" d="M41.86,22.78C36,20,29.43,15.23,29.43,12.81V2.51a2.51,2.51,0,1,0-5,0V56.17a17.31,17.31,0,0,0-9.69-2.83C6.59,53.34,0,58.44,0,64.74S6.59,76.15,14.71,76.15,29.43,71,29.43,64.74V20.89a50.63,50.63,0,0,0,10.3,6.43,2.51,2.51,0,0,0,2.14-4.54Z"/><path class="cls-2" d="M104.73,38.25a3.18,3.18,0,0,0-3.18-3.18H48.18A3.18,3.18,0,0,0,45,38.25v70.86a21.89,21.89,0,0,0-12.38-3.65c-10.3,0-18.64,6.47-18.64,14.45s8.35,14.45,18.64,14.45,18.64-6.47,18.64-14.45c0-.4.1-1.84.1-2.19V54.25h47v36A21.9,21.9,0,0,0,86,86.6c-10.3,0-18.64,6.47-18.64,14.45S75.73,115.5,86,115.5c10,0,18.12-6.08,18.62-13.72a3.2,3.2,0,0,0,.09-.73Z"/></g></g></svg>