<svg xmlns="http://www.w3.org/2000/svg" viewBox="0 0 214.86 150.31"><defs><style>.cls-1{fill:#191919;}.cls-2{fill:#72716f;}.cls-3{fill:#3f3f3f;}.cls-4{fill:#ffce00;}.cls-5{fill:#2bc406;}.cls-6{fill:#ff0808;}.cls-7{fill:#0791ef;}</style></defs><title>ico-play</title><g id="Capa_2" data-name="Capa 2"><g id="Capa_1-2" data-name="Capa 1"><rect class="cls-1" x="105.22" width="3.94" height="10.74"/><path class="cls-2" d="M33.91,32.83c-2.68.13-4-1.78-2.91-4.24L39.93,8.27a8.12,8.12,0,0,1,6.84-4.46H64.5A6.8,6.8,0,0,1,70.68,8.5L75.6,26.15A3.72,3.72,0,0,1,72,31.07Z"/><path class="cls-1" d="M66.22,4.33A2.12,2.12,0,0,1,64.1,6.44H47.87a2.12,2.12,0,0,1,0-4.23H64.1a2.12,2.12,0,0,1,2.12,2.12"/><path class="cls-2" d="M184.78,33.74c2.68.12,4-1.78,2.91-4.24L178.76,9.18a8.13,8.13,0,0,0-6.84-4.46H154.19A6.81,6.81,0,0,0,148,9.41l-4.92,17.64A3.72,3.72,0,0,0,146.65,32Z"/><path class="cls-1" d="M152.48,5.23a2.12,2.12,0,0,0,2.12,2.12h16.23a2.12,2.12,0,0,0,0-4.24H154.59a2.12,2.12,0,0,0-2.12,2.12"/><path class="cls-2" d="M184.08,46.16a452.79,452.79,0,0,1,27,59.83c16,44.32-23.12,57.06-40,30.65S138,85.84,138,85.84Z"/><path class="cls-2" d="M30.79,46.16A452.64,452.64,0,0,0,3.75,106c-16,44.32,23.12,57.06,40,30.65S76.88,85.84,76.88,85.84Z"/><rect class="cls-2" x="63.43" y="13.54" width="89.72" height="76.05"/><path class="cls-1" d="M96,61.23a42.8,42.8,0,1,1-42.8-42.8A42.8,42.8,0,0,1,96,61.23"/><path class="cls-3" d="M65.39,87.77c0,3.4-3.19,6.15-7.14,6.15H48.15c-3.94,0-7.13-2.76-7.13-6.15V34.69c0-3.4,3.19-6.15,7.13-6.15h10.1c3.94,0,7.14,2.76,7.14,6.15Z"/><path class="cls-3" d="M79.73,49c3.4,0,6.15,3.19,6.15,7.13V66.28c0,3.94-2.76,7.13-6.15,7.13H26.66c-3.4,0-6.15-3.19-6.15-7.13V56.18c0-3.94,2.75-7.13,6.15-7.13Z"/><path class="cls-4" d="M63.43,42.61A10.23,10.23,0,1,1,53.2,32.37,10.23,10.23,0,0,1,63.43,42.61"/><path class="cls-5" d="M63.43,79.85A10.23,10.23,0,1,1,53.2,69.62,10.23,10.23,0,0,1,63.43,79.85"/><path class="cls-6" d="M71.82,71.46A10.23,10.23,0,1,1,82.05,61.23,10.23,10.23,0,0,1,71.82,71.46"/><path class="cls-7" d="M34.57,71.46A10.23,10.23,0,1,1,44.81,61.23,10.23,10.23,0,0,1,34.57,71.46"/><path class="cls-1" d="M204.58,61.23a42.8,42.8,0,1,1-42.8-42.8,42.8,42.8,0,0,1,42.8,42.8"/><path class="cls-3" d="M174,87.77c0,3.4-3.19,6.15-7.13,6.15H156.73c-3.94,0-7.14-2.76-7.14-6.15V34.69c0-3.4,3.2-6.15,7.14-6.15h10.11c3.94,0,7.13,2.76,7.13,6.15Z"/><path class="cls-3" d="M188.32,49c3.4,0,6.15,3.19,6.15,7.13V66.28c0,3.94-2.76,7.13-6.15,7.13H135.24c-3.4,0-6.15-3.19-6.15-7.13V56.18c0-3.94,2.76-7.13,6.15-7.13Z"/><path class="cls-4" d="M172,42.61a10.23,10.23,0,1,1-10.23-10.23A10.23,10.23,0,0,1,172,42.61"/><path class="cls-5" d="M172,79.85a10.23,10.23,0,1,1-10.23-10.23A10.23,10.23,0,0,1,172,79.85"/><path class="cls-6" d="M180.41,71.46a10.23,10.23,0,1,1,10.23-10.23,10.23,10.23,0,0,1-10.23,10.23"/><path class="cls-7" d="M143.16,71.46a10.23,10.23,0,1,1,10.23-10.23,10.23,10.23,0,0,1-10.23,10.23"/><path class="cls-1" d="M114,76.27a6.65,6.65,0,1,1-6.65-6.65A6.65,6.65,0,0,1,114,76.27"/><rect class="cls-1" x="99.84" y="9.99" width="15.51" height="3.54"/></g></g></svg>