<svg xmlns="http://www.w3.org/2000/svg" xmlns:xlink="http://www.w3.org/1999/xlink" viewBox="0 0 162.13 169.63"><defs><style>.cls-1{fill:none;}.cls-2{fill:#1c3036;}.cls-3{fill:#4ba59c;}.cls-4{fill:#44978f;}.cls-5{clip-path:url(#clip-path);}.cls-6{fill:#327a74;}.cls-7{fill:#418d85;}.cls-8{fill:#3e877f;}</style><clipPath id="clip-path"><path class="cls-1" d="M151.74,66.78a37.07,37.07,0,0,1-35.38,10.33L116,77C106.64,68,96,56.91,89.09,50.2a37.1,37.1,0,1,1,62.66,16.58Z"/></clipPath></defs><title>ico-sing</title><g id="Capa_2" data-name="Capa 2"><g id="Modo_de_aislamiento" data-name="Modo de aislamiento"><path class="cls-2" d="M89.28,50.16s-85.76,99.67-87,100.92-5.53,7.29,2,14.57,13,2.54,14,1.49,98-90.48,98-90.48Z"/><polygon class="cls-3" points="74.09 67.79 99.51 92.27 96.03 95.46 70.99 71.29 74.09 67.79"/><ellipse class="cls-4" cx="71.47" cy="95.35" rx="8.42" ry="4.67" transform="translate(-46.78 80.63) rotate(-46.05)"/><ellipse class="cls-3" cx="71.47" cy="95.35" rx="5.89" ry="3.27" transform="translate(-46.78 80.63) rotate(-46.05)"/><path class="cls-4" d="M151.74,66.78a37.07,37.07,0,0,1-35.38,10.33L116,77C106.64,68,96,56.91,89.09,50.2a37.1,37.1,0,1,1,62.66,16.58Z"/><g class="cls-5"><polygon class="cls-4" points="116.27 76.75 88.98 50.45 92.71 46.38 120.25 72.94 116.27 76.75"/><rect class="cls-6" x="115.73" y="-5.61" width="13.29" height="95.66" transform="translate(7.05 101.03) rotate(-46.05)"/><circle class="cls-7" cx="105.06" cy="10.32" r="2.12" transform="translate(24.72 78.79) rotate(-46.05)"/><circle class="cls-7" cx="112.36" cy="17.36" r="2.12" transform="translate(21.89 86.22) rotate(-46.06)"/><circle class="cls-7" cx="119.67" cy="24.4" r="2.12" transform="translate(19.03 93.6) rotate(-46.04)"/><circle class="cls-7" cx="126.98" cy="31.45" r="2.12" transform="translate(16.22 101.06) rotate(-46.06)"/><circle class="cls-7" cx="134.29" cy="38.49" r="2.12" transform="translate(13.38 108.46) rotate(-46.05)"/><circle class="cls-7" cx="141.59" cy="45.54" r="2.12" transform="translate(10.55 115.88) rotate(-46.06)"/><circle class="cls-7" cx="148.9" cy="52.58" r="2.12" transform="translate(7.72 123.31) rotate(-46.06)"/><circle class="cls-7" cx="148.95" cy="52.53" r="2.12" transform="translate(7.75 123.29) rotate(-46.04)"/><circle class="cls-7" cx="156.26" cy="59.57" r="2.12" transform="translate(4.93 130.74) rotate(-46.06)"/><circle class="cls-7" cx="113.32" cy="10.16" r="2.12" transform="translate(27.36 84.69) rotate(-46.05)"/><circle class="cls-7" cx="120.63" cy="17.21" r="2.12" transform="translate(24.53 92.13) rotate(-46.06)"/><circle class="cls-7" cx="127.93" cy="24.25" r="2.12" transform="translate(21.68 99.52) rotate(-46.05)"/><circle class="cls-7" cx="135.24" cy="31.3" r="2.12" transform="translate(18.86 106.95) rotate(-46.06)"/><circle class="cls-7" cx="142.55" cy="38.34" r="2.12" transform="translate(16.02 114.37) rotate(-46.06)"/><circle class="cls-7" cx="149.85" cy="45.38" r="2.12" transform="translate(13.18 121.78) rotate(-46.05)"/><circle class="cls-7" cx="157.16" cy="52.43" r="2.12" transform="translate(10.34 129.18) rotate(-46.05)"/><circle class="cls-7" cx="120.64" cy="9.51" r="2.12" transform="translate(30.07 89.77) rotate(-46.06)"/><circle class="cls-7" cx="127.95" cy="16.56" r="2.12" transform="translate(27.22 97.17) rotate(-46.05)"/><circle class="cls-7" cx="135.25" cy="23.6" r="2.12" transform="translate(24.39 104.6) rotate(-46.05)"/><circle class="cls-7" cx="142.56" cy="30.65" r="2.12" transform="translate(21.56 112.02) rotate(-46.05)"/><circle class="cls-7" cx="149.87" cy="37.69" r="2.12" transform="translate(18.73 119.44) rotate(-46.06)"/><circle class="cls-7" cx="157.18" cy="44.73" r="2.12" transform="translate(15.9 126.87) rotate(-46.06)"/><circle class="cls-7" cx="121.28" cy="2.12" r="2.12" transform="translate(35.58 87.96) rotate(-46.05)"/><circle class="cls-7" cx="128.59" cy="9.16" r="2.12" transform="translate(32.77 95.4) rotate(-46.06)"/><circle class="cls-7" cx="135.89" cy="16.21" r="2.12" transform="translate(29.9 102.78) rotate(-46.04)"/><circle class="cls-7" cx="143.2" cy="23.25" r="2.12" transform="translate(27.08 110.21) rotate(-46.05)"/><circle class="cls-7" cx="150.51" cy="30.29" r="2.12" transform="translate(24.23 117.61) rotate(-46.04)"/><circle class="cls-7" cx="157.81" cy="37.34" r="2.12" transform="translate(21.39 125.02) rotate(-46.04)"/><circle class="cls-7" cx="135.91" cy="8.51" r="2.12" transform="translate(35.43 100.42) rotate(-46.04)"/><circle class="cls-7" cx="143.21" cy="15.55" r="2.12" transform="translate(32.65 107.9) rotate(-46.07)"/><circle class="cls-7" cx="150.52" cy="22.6" r="2.12" transform="translate(29.79 115.28) rotate(-46.05)"/><circle class="cls-7" cx="157.83" cy="29.64" r="2.12" transform="translate(26.95 122.7) rotate(-46.05)"/><circle class="cls-7" cx="143.44" cy="8.48" r="2.12" transform="translate(37.77 105.84) rotate(-46.04)"/><circle class="cls-7" cx="150.75" cy="15.52" r="2.12" transform="translate(34.96 113.29) rotate(-46.06)"/><circle class="cls-7" cx="158.06" cy="22.56" r="2.12" transform="translate(32.1 120.67) rotate(-46.04)"/><circle class="cls-7" cx="140.72" cy="75.22" r="2.12" transform="translate(-11.11 124.3) rotate(-46.04)"/><circle class="cls-7" cx="133.41" cy="68.18" r="2.12" transform="translate(-8.26 116.92) rotate(-46.05)"/><circle class="cls-7" cx="126.1" cy="61.13" r="2.12" transform="translate(-5.42 109.51) rotate(-46.06)"/><circle class="cls-7" cx="118.8" cy="54.09" r="2.12" transform="translate(-2.59 102.09) rotate(-46.06)"/><circle class="cls-7" cx="111.49" cy="47.04" r="2.12" transform="translate(0.25 94.68) rotate(-46.06)"/><circle class="cls-7" cx="104.18" cy="40" r="2.12" transform="translate(3.06 87.21) rotate(-46.03)"/><circle class="cls-7" cx="96.87" cy="32.96" r="2.12" transform="translate(5.91 79.82) rotate(-46.05)"/><circle class="cls-7" cx="96.82" cy="33.01" r="2.12" transform="translate(5.86 79.81) rotate(-46.05)"/><circle class="cls-7" cx="89.52" cy="25.97" r="2.12" transform="translate(8.71 72.41) rotate(-46.06)"/><circle class="cls-7" cx="132.46" cy="75.37" r="2.12" transform="translate(-13.73 118.44) rotate(-46.05)"/><circle class="cls-7" cx="125.15" cy="68.33" r="2.12" transform="translate(-10.91 110.98) rotate(-46.04)"/><circle class="cls-7" cx="117.84" cy="61.28" r="2.12" transform="translate(-8.07 103.58) rotate(-46.04)"/><circle class="cls-7" cx="110.54" cy="54.24" r="2.12" transform="translate(-5.23 96.18) rotate(-46.05)"/><circle class="cls-7" cx="103.23" cy="47.2" r="2.12" transform="translate(-2.38 88.8) rotate(-46.07)"/><circle class="cls-7" cx="95.92" cy="40.15" r="2.12" transform="translate(0.44 81.34) rotate(-46.05)"/><circle class="cls-7" cx="88.61" cy="33.11" r="2.12" transform="translate(3.28 73.94) rotate(-46.06)"/><circle class="cls-7" cx="125.14" cy="76.02" r="2.12" transform="translate(-16.44 113.36) rotate(-46.05)"/><circle class="cls-7" cx="117.83" cy="68.98" r="2.12" transform="translate(-13.61 105.92) rotate(-46.04)"/><circle class="cls-7" cx="110.52" cy="61.94" r="2.12" transform="translate(-10.77 98.53) rotate(-46.06)"/><circle class="cls-7" cx="103.22" cy="54.89" r="2.12" transform="translate(-7.94 91.1) rotate(-46.05)"/><circle class="cls-7" cx="95.91" cy="47.85" r="2.12" transform="translate(-5.11 83.68) rotate(-46.04)"/><circle class="cls-7" cx="88.6" cy="40.8" r="2.12" transform="translate(-2.26 76.3) rotate(-46.06)"/><circle class="cls-7" cx="117.19" cy="76.38" r="2.12" transform="translate(-19.13 107.75) rotate(-46.06)"/><circle class="cls-7" cx="109.88" cy="69.33" r="2.12" transform="translate(-16.3 100.3) rotate(-46.04)"/><circle class="cls-7" cx="102.58" cy="62.29" r="2.12" transform="translate(-13.46 92.9) rotate(-46.05)"/><circle class="cls-7" cx="95.27" cy="55.24" r="2.12" transform="translate(-10.62 85.5) rotate(-46.06)"/><circle class="cls-7" cx="87.96" cy="48.2" r="2.12" transform="translate(-7.79 78.08) rotate(-46.05)"/></g><polygon class="cls-8" points="88.72 48.67 87.37 52.42 114.42 78.47 118.48 77.51 88.72 48.67"/></g></g></svg>