<svg xmlns="http://www.w3.org/2000/svg" viewBox="0 0 106.35 94.95"><title>ico-random</title><path d="M48.78,50.44Q51.51,44,53.41,40.3a51.26,51.26,0,0,1,2.67-4.6,24.17,24.17,0,0,1,3-3.65,11.71,11.71,0,0,1,4.1-2.67,14.24,14.24,0,0,1,5.16-.89H83.56v11.4a1.92,1.92,0,0,0,1.9,1.9,1.85,1.85,0,0,0,1.37-.53l19-19a2,2,0,0,0,0-2.73L86.88.59A2.23,2.23,0,0,0,85.46,0a1.82,1.82,0,0,0-1.9,1.9V13.29H68.37a28.5,28.5,0,0,0-7.6,1,29.13,29.13,0,0,0-6.32,2.49,24.07,24.07,0,0,0-5.34,4.07,47.23,47.23,0,0,0-4.39,4.93,50.12,50.12,0,0,0-3.8,5.93q-2,3.56-3.2,6.23t-2.94,6.59Q32,51,30.15,54.66a51,51,0,0,1-2.67,4.6,24.41,24.41,0,0,1-3,3.65,11.64,11.64,0,0,1-4.1,2.67,14.24,14.24,0,0,1-5.16.89H1.9A1.83,1.83,0,0,0,0,68.37v11.4a1.83,1.83,0,0,0,1.9,1.9H15.19a28.45,28.45,0,0,0,7.6-1,29.07,29.07,0,0,0,6.32-2.49,24.09,24.09,0,0,0,5.34-4.07,48,48,0,0,0,4.39-4.92,50.09,50.09,0,0,0,3.79-5.94q2-3.56,3.21-6.23t2.94-6.59Zm0,0" style="fill:#fff"/><path d="M1.9,28.48H15.19a13.32,13.32,0,0,1,4.83.86,13.91,13.91,0,0,1,3.74,2.08,16.6,16.6,0,0,1,3,3.35,39.91,39.91,0,0,1,2.4,3.77q.89,1.63,2.2,4.3a109.37,109.37,0,0,1,8.13-16.2Q30,13.29,15.19,13.3H1.9A1.83,1.83,0,0,0,0,15.19V26.59a1.83,1.83,0,0,0,1.9,1.9Zm0,0" style="fill:#fff"/><path d="M86.88,53.77a2.22,2.22,0,0,0-1.43-.59,1.83,1.83,0,0,0-1.9,1.9v11.4H68.37a13.23,13.23,0,0,1-4.84-.86,13.79,13.79,0,0,1-3.74-2.08,16.48,16.48,0,0,1-3-3.35,38.91,38.91,0,0,1-2.4-3.77q-.89-1.63-2.19-4.3a119.78,119.78,0,0,1-8.07,16.2,33.92,33.92,0,0,0,3.32,4.13q1.72,1.81,3.27,3.17A17,17,0,0,0,54.18,78q2,1,3.44,1.69a16,16,0,0,0,3.74,1.1q2.26.42,3.8.62t4.21.3c1.78.06,3.22.08,4.33.06l4.81-.06,5,0v11.4a1.93,1.93,0,0,0,3.26,1.37l19-19a2,2,0,0,0,0-2.73Zm0,0" style="fill:#fff"/></svg>