<svg xmlns="http://www.w3.org/2000/svg" viewBox="0 0 43.72 33.85"><title>ico-email</title><path d="M39.82,33.85a3.73,3.73,0,0,0,2.56-1L30,20.5l-.86.62q-1.39,1-2.26,1.6a13.86,13.86,0,0,1-2.31,1.17,7,7,0,0,1-2.68.6h0a7,7,0,0,1-2.68-.6,13.75,13.75,0,0,1-2.31-1.17q-.87-.57-2.26-1.6l-.86-.62L1.34,32.88a3.74,3.74,0,0,0,2.56,1Z" style="fill:#fff"/><path d="M3,12.7A12.93,12.93,0,0,1,.5,10.57V29.42L11.42,18.5Q8.14,16.21,3,12.7" style="fill:#fff"/><path d="M40.78,12.7q-5,3.37-8.47,5.81L43.22,29.42V10.57a13.44,13.44,0,0,1-2.44,2.12" style="fill:#fff"/><path d="M39.82,0H3.9A3.48,3.48,0,0,0,1,1.27,4.92,4.92,0,0,0,0,4.44,5.7,5.7,0,0,0,1.34,7.77,12.07,12.07,0,0,0,4.2,10.59l5,3.48,3.93,2.73,2.46,1.72.36.26.67.48q.79.57,1.32.93t1.27.79a7.35,7.35,0,0,0,1.4.66,3.87,3.87,0,0,0,1.22.22h0a3.88,3.88,0,0,0,1.22-.22,7.28,7.28,0,0,0,1.4-.66q.74-.44,1.27-.79t1.32-.93l.67-.48.37-.26L30.6,16.8l8.95-6.21a11.58,11.58,0,0,0,3-3A6.46,6.46,0,0,0,43.72,3.9a3.74,3.74,0,0,0-1.16-2.76A3.78,3.78,0,0,0,39.82,0" style="fill:#fff"/></svg>