<svg xmlns="http://www.w3.org/2000/svg" viewBox="0 0 47.04 47.04"><title>ico-in</title><path d="M23.52,4.24c6.28,0,7,0,9.5.14a13,13,0,0,1,4.37.81A7.29,7.29,0,0,1,40.1,6.94a7.31,7.31,0,0,1,1.76,2.7A13,13,0,0,1,42.67,14c.11,2.48.14,3.22.14,9.5s0,7-.14,9.5a13,13,0,0,1-.81,4.37,7.79,7.79,0,0,1-4.46,4.46,13,13,0,0,1-4.37.81c-2.48.11-3.22.14-9.5.14s-7,0-9.5-.14a13,13,0,0,1-4.37-.81,7.28,7.28,0,0,1-2.7-1.76,7.29,7.29,0,0,1-1.76-2.7A13.06,13.06,0,0,1,4.38,33c-.11-2.48-.14-3.22-.14-9.5s0-7,.14-9.5a13.06,13.06,0,0,1,.81-4.37,7.3,7.3,0,0,1,1.76-2.7A7.27,7.27,0,0,1,9.65,5.18,13,13,0,0,1,14,4.37c2.48-.11,3.22-.14,9.5-.14m0-4.24c-6.39,0-7.19,0-9.7.14A17.24,17.24,0,0,0,8.11,1.23,11.51,11.51,0,0,0,3.95,3.95,11.51,11.51,0,0,0,1.24,8.11,17.28,17.28,0,0,0,.14,13.82C0,16.33,0,17.13,0,23.52s0,7.19.14,9.7a17.27,17.27,0,0,0,1.09,5.71,11.51,11.51,0,0,0,2.71,4.17A11.51,11.51,0,0,0,8.11,45.8a17.27,17.27,0,0,0,5.71,1.09c2.51.11,3.31.14,9.7.14s7.19,0,9.7-.14a17.26,17.26,0,0,0,5.71-1.09,12,12,0,0,0,6.88-6.88,17.28,17.28,0,0,0,1.09-5.71c.12-2.51.14-3.31.14-9.7s0-7.19-.14-9.7a17.28,17.28,0,0,0-1.09-5.71,11.53,11.53,0,0,0-2.71-4.17,11.5,11.5,0,0,0-4.17-2.71A17.23,17.23,0,0,0,33.22.14C30.71,0,29.91,0,23.52,0" style="fill:#efeae2"/><path d="M23.52,11.44A12.08,12.08,0,1,0,35.6,23.52,12.08,12.08,0,0,0,23.52,11.44m0,19.92a7.84,7.84,0,1,1,7.84-7.84,7.84,7.84,0,0,1-7.84,7.84" style="fill:#efeae2"/><path d="M38.9,11a2.82,2.82,0,1,1-2.82-2.82A2.82,2.82,0,0,1,38.9,11" style="fill:#efeae2"/></svg>